<svg xmlns="http://www.w3.org/2000/svg" xmlns:xlink="http://www.w3.org/1999/xlink" fill="none" version="1.1" width="24" height="24" viewBox="0 0 24 24"><defs><clipPath id="master_svg0_67_15947"><rect x="0" y="0" width="24" height="24" rx="0"/></clipPath></defs><g clip-path="url(#master_svg0_67_15947)"><g><path d="M4.000020503997803,9.600066622058105C4.000020503997803,10.685781522058106,4.914306283997803,11.600067122058105,6.000020503997803,11.600067122058105C7.085734603997803,11.600067122058105,8.000021003997801,10.685781522058106,8.000021003997801,9.600066622058105C8.000021003997801,8.514351822058106,7.085735303997803,7.600066222058105,6.000020503997803,7.600066222058105C4.914305863997803,7.600066222058105,4.000020503997803,8.514351822058106,4.000020503997803,9.600066622058105ZM7.600020603997803,6.400065922058106C7.600020603997803,7.485780522058105,8.514306503997803,8.400066422058106,9.600020903997802,8.400066422058106C10.685735203997803,8.400066422058106,11.600020903997802,7.485780522058105,11.600020903997802,6.400065922058106C11.600020903997802,5.314351202058106,10.685735203997803,4.4000654220581055,9.600020903997802,4.4000654220581055C8.514306503997803,4.4000654220581055,7.600020603997803,5.314351202058106,7.600020603997803,6.400065922058106ZM12.400020103997802,6.400065922058106C12.400020103997802,7.485780522058105,13.314305803997803,8.400066422058106,14.400020503997803,8.400066422058106C15.485733503997803,8.400066422058106,16.4000205039978,7.485780522058105,16.4000205039978,6.400065922058106C16.4000205039978,5.314351202058106,15.485733503997803,4.4000654220581055,14.400020503997803,4.4000654220581055C13.314305803997803,4.4000654220581055,12.400020103997802,5.314351202058106,12.400020103997802,6.400065922058106ZM16.000019503997805,9.600066222058105C16.000019503997805,10.685780522058106,16.914306503997803,11.600066222058105,18.000019503997805,11.600066222058105C19.085732503997804,11.600066222058105,20.000019503997805,10.685780522058106,20.000019503997805,9.600066222058105C20.000019503997805,8.514351322058104,19.085732503997804,7.600065222058106,18.000019503997805,7.600065222058106C16.914306503997803,7.600065222058106,16.000019503997805,8.514351322058104,16.000019503997805,9.600066222058105ZM16.285735503997802,13.885781322058106C15.600020503997802,13.085782022058105,15.028591503997802,12.400066422058105,14.285734503997803,11.542923422058106C13.885736003997803,11.085781122058105,13.428592203997804,10.685780522058106,12.914306203997803,10.514351822058106C12.857163903997803,10.514351822058106,12.742877503997804,10.457209622058105,12.628592003997802,10.457209622058105C12.400020103997802,10.400066822058106,12.228592403997803,10.400066822058106,12.000020503997803,10.400066822058106C11.771447703997802,10.400066822058106,11.600019903997802,10.400066822058106,11.371448003997802,10.457209622058105C11.257163003997803,10.457209622058105,11.200020303997803,10.514353322058106,11.085733903997802,10.514353322058106C10.514305603997803,10.685781922058105,10.057162803997802,11.142925222058105,9.714304903997803,11.542923922058105C9.028590703997804,12.342924622058106,8.457162403997803,13.028638822058106,7.714304903997803,13.885781322058106C6.685733303997803,14.914353422058106,5.371447303997803,16.114351422058107,5.600018703997803,17.714354422058108C5.828590203997803,18.514353422058107,6.400018703997803,19.314353422058105,7.485733303997803,19.600069422058105C8.057161803997802,19.714356422058106,9.942876303997803,19.257212422058103,11.942875903997802,19.257208422058106L12.057160903997802,19.257208422058106C14.057160503997803,19.257208422058106,15.885734503997803,19.714352422058106,16.514304503997803,19.600069422058105C17.542876503997803,19.371496422058108,18.1714485039978,18.571497422058105,18.4000205039978,17.714354422058108C18.628591503997804,16.114355422058104,17.314304503997803,14.914353422058106,16.285735503997802,13.885781322058106Z" fill="#FFFFFF" fill-opacity="1"/></g></g></svg>