<svg xmlns="http://www.w3.org/2000/svg" xmlns:xlink="http://www.w3.org/1999/xlink" fill="none" version="1.1" width="24" height="24" viewBox="0 0 24 24"><defs><clipPath id="master_svg0_67_15919"><rect x="0" y="0" width="24" height="24" rx="0"/></clipPath></defs><g clip-path="url(#master_svg0_67_15919)"><g><rect x="0" y="0" width="24" height="24" rx="0" fill="#FFFFFF" fill-opacity="0.009999999776482582" style="mix-blend-mode:passthrough"/></g><g><path d="M12,22C12,22,4.5,16,4.5,9.5C4.5,5.3578501,7.8578501,2,12,2C16.142151,2,19.5,5.3578501,19.5,9.5C19.5,16,12,22,12,22ZM12,12.5Q12.1473808,12.5,12.2940512,12.485555Q12.440722000000001,12.471109,12.5852699,12.442356Q12.7298193,12.413605,12.8708534,12.370822Q13.0118876,12.328039,13.1480484,12.271638Q13.2842102,12.215239,13.4141884,12.145763Q13.5441666,12.076288,13.6667089,11.9944077Q13.7892532,11.912528,13.9031792,11.8190308Q14.017107,11.7255344,14.1213198,11.6213198Q14.2255344,11.517107,14.3190308,11.4031801Q14.412528,11.2892532,14.4944077,11.1667099Q14.576288,11.0441675,14.645763,10.9141884Q14.715239,10.7842102,14.771638,10.6480484Q14.828039,10.5118876,14.870822,10.3708534Q14.913605,10.2298193,14.942356,10.0852699Q14.971109,9.940722000000001,14.985555,9.7940512Q15,9.6473808,15,9.5Q15,9.3526192,14.985555,9.2059484Q14.971109,9.0592775,14.942356,8.914728199999999Q14.913605,8.7701797,14.870822,8.629145600000001Q14.828039,8.488111,14.771638,8.351948700000001Q14.715239,8.215786900000001,14.645763,8.085808799999999Q14.576288,7.9558311,14.4944077,7.8332882Q14.412528,7.7107463,14.3190308,7.5968199Q14.2255344,7.482893,14.1213198,7.3786793Q14.017107,7.2744656,13.9031801,7.1809688Q13.7892532,7.0874715,13.6667099,7.0055909Q13.5441675,6.9237108,13.4141884,6.8542361Q13.2842102,6.7847614,13.1480484,6.7283611Q13.0118876,6.6719613,12.8708534,6.629179Q12.7298193,6.5863967,12.5852699,6.5576439Q12.440722000000001,6.5288916,12.2940512,6.5144458Q12.1473808,6.5,12,6.5Q11.8526192,6.5,11.7059484,6.5144458Q11.5592775,6.5288916,11.414728199999999,6.5576439Q11.2701797,6.5863967,11.129145600000001,6.629179Q10.988111,6.6719613,10.851948700000001,6.7283611Q10.715786900000001,6.7847614,10.585808799999999,6.8542361Q10.455831100000001,6.9237108,10.3332882,7.0055904Q10.2107463,7.087471,10.0968199,7.1809683Q9.982893,7.2744656,9.8786793,7.3786793Q9.7744656,7.482893,9.680968799999999,7.5968199Q9.5874715,7.7107468,9.5055909,7.8332887Q9.4237108,7.9558315,9.3542361,8.0858092Q9.2847614,8.215786900000001,9.2283611,8.351948700000001Q9.1719613,8.488111,9.129179,8.629145600000001Q9.0863967,8.7701797,9.0576439,8.914728199999999Q9.0288916,9.0592775,9.0144458,9.2059484Q9,9.3526192,9,9.5Q9,9.6473808,9.0144458,9.7940512Q9.0288916,9.940722000000001,9.0576439,10.0852699Q9.0863967,10.2298193,9.129179,10.3708534Q9.1719613,10.5118876,9.2283611,10.6480484Q9.2847614,10.7842102,9.3542361,10.9141884Q9.4237108,11.0441666,9.505590399999999,11.1667089Q9.587471,11.2892532,9.6809683,11.4031792Q9.7744656,11.517107,9.8786793,11.6213198Q9.982893,11.7255344,10.0968199,11.8190308Q10.210746799999999,11.912528,10.3332887,11.9944077Q10.4558315,12.076288,10.5858092,12.145763Q10.715786900000001,12.215239,10.851948700000001,12.271638Q10.988111,12.328039,11.129145600000001,12.370822Q11.2701797,12.413605,11.414728199999999,12.442356Q11.5592775,12.471109,11.7059484,12.485555Q11.8526192,12.5,12,12.5Z" fill-rule="evenodd" fill="#FFFFFF" fill-opacity="1"/></g></g></svg>