<svg xmlns="http://www.w3.org/2000/svg" xmlns:xlink="http://www.w3.org/1999/xlink" fill="none" version="1.1" width="24" height="24" viewBox="0 0 24 24"><defs><clipPath id="master_svg0_67_16123"><rect x="0" y="0" width="24" height="24" rx="0"/></clipPath></defs><g clip-path="url(#master_svg0_67_16123)"><g><rect x="0" y="0" width="24" height="24" rx="0" fill="#FFFFFF" fill-opacity="0.009999999776482582" style="mix-blend-mode:passthrough"/></g><g><path d="M4,18L4,6.000000200000001C4,4.89543056,4.89543056,4,6.000000200000001,4L9.3333335,4C9.921866900000001,5.4037955,10.8107557,6.105688799999999,12,6.105688799999999C13.1892452,6.105688799999999,14.078135,5.4037955,14.666667,4L18,4C19.104568999999998,4,20,4.89543056,20,6L20,18C20,19.104568999999998,19.104568999999998,20,18,20L6.000000200000001,20C4.89543056,20,4,19.104568999999998,4,18ZM16.599681,11.4666324C16.851436,11.277815799999999,16.999601,10.9814863,16.999601,10.6667924C16.999601,10.114617800000001,16.551974,9.6669922,15.999801,9.6669922C15.783473,9.6669922,15.572982,9.737155900000001,15.399801,9.866792199999999L10.7476606,13.3558969L8.693797100000001,11.3756633C8.5074501,11.195972000000001,8.2586708,11.0955639,7.9998002,11.0955639C7.4476256,11.0955639,7,11.5431895,7,12.0953636C7,12.3668318,7.110389,12.6266289,7.3056645,12.8152084L9.9723315,15.386637C10.3256006,15.727289,10.8738608,15.761248,11.2664671,15.466793L16.599681,11.4666324Z" fill-rule="evenodd" fill="#FFFFFF" fill-opacity="1"/></g></g></svg>