<svg xmlns="http://www.w3.org/2000/svg" xmlns:xlink="http://www.w3.org/1999/xlink" fill="none" version="1.1" width="24" height="24" viewBox="0 0 24 24"><defs><clipPath id="master_svg0_67_15899"><rect x="0" y="0" width="24" height="24" rx="0"/></clipPath></defs><g clip-path="url(#master_svg0_67_15899)"><g><path d="M3.773876,7.8165274Q2.56286383,4.3086526,3.2469034,2Q7.9293003,2.98770142,10.1451321,6.0565853C10.750514,6.0181432,11.3711071,6,12,6C12.628853,6,13.249405,6.0181408,13.854757,6.0565772Q16.070582,2.98770034,20.752975,2Q21.437008,4.3086302,20.226027,7.8164577C21.335894,8.6078238,21.999966,9.6939054,21.999966,11.1428566C21.999966,15,18.47051,17.285679000000002,16.705811,18.142822Q14.941111,18.999966,12,21Q9.0588894,18.999966,7.2941895,18.142822C5.5294895,17.285679000000002,2.000033378601,15,2.000033378601,11.1428566C2.000033378601,9.6939478,2.66406739,8.6078873,3.773876,7.8165274ZM9.670041999999999,11Q12.031439,13.083334,10.2000742,16.999999000000003Q9.910014199999999,16.232312999999998,9.6397514,15.586866Q9.6943393,15.747801,9.7460938,15.916748Q8.3292351,15.083414,5.967838,14.666748Q3.6064415,14.250081,4.0787406,10.75Q5.0233001999999995,12,6.9124174,12.416666Q8.078557499999999,12.673872,8.8847728,13.947247Q8.304299799999999,12.827503,7.8386283,12.416666C6.8940687,11.583333,4.5327711,8.6666665,7.3663983,7Q7.3086452,8.916667,9.670041999999999,11ZM13.799926,16.999999000000003Q11.9685612,13.083334,14.329958,11Q16.691355,8.916667,16.633602,7C19.467228,8.6666665,17.105930999999998,11.583333,16.161371000000003,12.416666Q15.6957,12.827503,15.115226,13.947249Q15.921441,12.673872,17.087583000000002,12.416666Q18.9767,12,19.921259,10.75Q20.393559,14.250081,18.032162,14.666748Q15.670765,15.083414,14.253906,15.916748Q14.305655,15.747818,14.36025,15.586865Q14.08998,16.232326999999998,13.799926,16.999999000000003Z" fill-rule="evenodd" fill="#FFFFFF" fill-opacity="1"/></g></g></svg>