<svg xmlns="http://www.w3.org/2000/svg" xmlns:xlink="http://www.w3.org/1999/xlink" fill="none" version="1.1" width="24" height="24" viewBox="0 0 24 24"><defs><clipPath id="master_svg0_67_15946"><rect x="0" y="0" width="24" height="24" rx="0"/></clipPath></defs><g clip-path="url(#master_svg0_67_15946)"><g><path d="M16.980454722702028,13.551735375L14.624986722702026,11.294702575L15.501549722702027,10.380640075L14.210142722702026,9.140796675L13.333580722702026,10.054859175L11.196079922702026,12.283765775C10.867954922702026,12.628296375,10.823423122702026,13.129858375,11.046079422702027,13.518921375C11.095298522702027,13.603297375,11.153892322702026,13.685328375,11.226547922702027,13.755641375C11.404674322702027,13.926734375,11.632016922702027,14.018139375,11.861705522702026,14.036891375C11.496079222702026,14.186889375,11.057799122702026,14.118922375,10.753111622702026,13.825953375C10.338268022702026,13.427515375,10.324206122702027,12.768921375,10.724986822702027,12.354078375L13.124986722702026,9.855640375L10.769516722702026,7.598608975C10.167173122702026,7.022046575,9.206235622702026,7.040796775,8.629673222702026,7.643140275L2.2804534627020265,14.268921375C1.6734221327020264,16.671264375,3.5554538227020265,20.140014375,4.157797122702027,20.716579375C4.760140922702027,21.297828375,8.301548222702026,23.032203375,10.680453022702027,22.322048375L17.02967372270203,15.696265375C17.606234722702027,15.093923375,17.587484722702026,14.132984375,16.980454722702028,13.551735375ZM21.700768722702026,6.703296675L17.327329722702025,2.5126709050000002C17.024984722702026,2.224389546,16.546861722702026,2.233764581,16.256235722702026,2.5361084050000002L14.978890722702026,3.867358575C14.690610722702026,4.169702075,14.699984722702027,4.647827375,15.002328722702027,4.9384522749999995L16.694516722702026,6.560327575L14.507798722702026,8.840796975L15.794518722702026,10.073609375L17.981235722702024,7.793139975L19.373425722702027,9.126733775C19.675768722702028,9.415014275,20.153893722702026,9.405639675,20.444519722702026,9.103296275L21.719519722702028,7.774389275C22.007799722702025,7.472046375,21.998426722702025,6.991577175,21.700768722702026,6.703296675Z" fill="#FFFFFF" fill-opacity="1"/></g></g></svg>